<mxfile host="app.diagrams.net" modified="2021-06-06T13:06:53.412Z" agent="5.0 (Windows NT 10.0; Win64; x64) AppleWebKit/537.36 (KHTML, like Gecko) Chrome/91.0.4472.77 Safari/537.36" etag="Cwapz6HpTaBmhBZcFKSr" version="14.7.6" type="github">
  <diagram id="XLJMUqHiTXPoUTxL7cdy" name="Page-1">
    <mxGraphModel dx="1422" dy="772" grid="1" gridSize="10" guides="1" tooltips="1" connect="1" arrows="1" fold="1" page="1" pageScale="1" pageWidth="827" pageHeight="1169" math="0" shadow="0">
      <root>
        <mxCell id="0" />
        <mxCell id="1" parent="0" />
        <mxCell id="1S2QTwo0giWLdl-as3Fp-15" style="edgeStyle=orthogonalEdgeStyle;rounded=0;orthogonalLoop=1;jettySize=auto;html=1;fontSize=14;fontStyle=1;strokeWidth=2;" parent="1" source="1S2QTwo0giWLdl-as3Fp-2" target="1S2QTwo0giWLdl-as3Fp-9" edge="1">
          <mxGeometry relative="1" as="geometry" />
        </mxCell>
        <mxCell id="1S2QTwo0giWLdl-as3Fp-16" style="edgeStyle=orthogonalEdgeStyle;rounded=0;orthogonalLoop=1;jettySize=auto;html=1;entryX=0;entryY=0.5;entryDx=0;entryDy=0;fontSize=14;fontStyle=1;strokeWidth=2;" parent="1" source="1S2QTwo0giWLdl-as3Fp-2" target="1S2QTwo0giWLdl-as3Fp-8" edge="1">
          <mxGeometry relative="1" as="geometry" />
        </mxCell>
        <mxCell id="1S2QTwo0giWLdl-as3Fp-17" style="edgeStyle=orthogonalEdgeStyle;rounded=0;orthogonalLoop=1;jettySize=auto;html=1;entryX=0;entryY=0.5;entryDx=0;entryDy=0;fontSize=14;fontStyle=1;strokeWidth=2;" parent="1" source="1S2QTwo0giWLdl-as3Fp-2" target="1S2QTwo0giWLdl-as3Fp-10" edge="1">
          <mxGeometry relative="1" as="geometry" />
        </mxCell>
        <mxCell id="1S2QTwo0giWLdl-as3Fp-40" style="edgeStyle=orthogonalEdgeStyle;rounded=0;orthogonalLoop=1;jettySize=auto;html=1;fontSize=14;fontStyle=1;strokeWidth=2;" parent="1" source="1S2QTwo0giWLdl-as3Fp-2" target="1S2QTwo0giWLdl-as3Fp-4" edge="1">
          <mxGeometry relative="1" as="geometry" />
        </mxCell>
        <mxCell id="1S2QTwo0giWLdl-as3Fp-2" value="第一章：绪论" style="rounded=0;whiteSpace=wrap;html=1;fillColor=#F1F5BD;fontSize=14;fontFamily=Verdana;fontStyle=1" parent="1" vertex="1">
          <mxGeometry x="77" y="121" width="120" height="60" as="geometry" />
        </mxCell>
        <mxCell id="1S2QTwo0giWLdl-as3Fp-41" style="edgeStyle=orthogonalEdgeStyle;rounded=0;orthogonalLoop=1;jettySize=auto;html=1;entryX=0.5;entryY=0;entryDx=0;entryDy=0;fontSize=14;fontStyle=1;strokeWidth=2;" parent="1" source="1S2QTwo0giWLdl-as3Fp-4" target="1S2QTwo0giWLdl-as3Fp-5" edge="1">
          <mxGeometry relative="1" as="geometry" />
        </mxCell>
        <mxCell id="1S2QTwo0giWLdl-as3Fp-45" style="edgeStyle=orthogonalEdgeStyle;rounded=0;orthogonalLoop=1;jettySize=auto;html=1;entryX=0;entryY=0.5;entryDx=0;entryDy=0;fontSize=14;fontStyle=1;strokeWidth=2;" parent="1" source="1S2QTwo0giWLdl-as3Fp-4" target="1S2QTwo0giWLdl-as3Fp-19" edge="1">
          <mxGeometry relative="1" as="geometry" />
        </mxCell>
        <mxCell id="1S2QTwo0giWLdl-as3Fp-46" style="edgeStyle=orthogonalEdgeStyle;rounded=0;orthogonalLoop=1;jettySize=auto;html=1;fontSize=14;fontStyle=1;strokeWidth=2;" parent="1" source="1S2QTwo0giWLdl-as3Fp-4" target="1S2QTwo0giWLdl-as3Fp-20" edge="1">
          <mxGeometry relative="1" as="geometry" />
        </mxCell>
        <mxCell id="1S2QTwo0giWLdl-as3Fp-4" value="第二章：相关理论与技术基础" style="rounded=0;whiteSpace=wrap;html=1;fillColor=#F1F5BD;fontSize=14;fontStyle=1" parent="1" vertex="1">
          <mxGeometry x="77" y="290" width="120" height="60" as="geometry" />
        </mxCell>
        <mxCell id="1S2QTwo0giWLdl-as3Fp-47" style="edgeStyle=orthogonalEdgeStyle;rounded=0;orthogonalLoop=1;jettySize=auto;html=1;fontSize=14;fontStyle=1;strokeWidth=2;" parent="1" source="1S2QTwo0giWLdl-as3Fp-5" target="1S2QTwo0giWLdl-as3Fp-6" edge="1">
          <mxGeometry relative="1" as="geometry" />
        </mxCell>
        <mxCell id="1S2QTwo0giWLdl-as3Fp-5" value="第三章：基于背景抑制网络的无监督时间动作定位" style="rounded=0;whiteSpace=wrap;html=1;fillColor=#F1F5BD;fontSize=14;fontStyle=1" parent="1" vertex="1">
          <mxGeometry x="77" y="530" width="120" height="60" as="geometry" />
        </mxCell>
        <mxCell id="1S2QTwo0giWLdl-as3Fp-53" style="edgeStyle=orthogonalEdgeStyle;rounded=0;orthogonalLoop=1;jettySize=auto;html=1;entryX=0;entryY=0.5;entryDx=0;entryDy=0;fontSize=14;fontStyle=1;strokeWidth=2;" parent="1" source="1S2QTwo0giWLdl-as3Fp-6" target="1S2QTwo0giWLdl-as3Fp-42" edge="1">
          <mxGeometry relative="1" as="geometry" />
        </mxCell>
        <mxCell id="1S2QTwo0giWLdl-as3Fp-54" style="edgeStyle=orthogonalEdgeStyle;rounded=0;orthogonalLoop=1;jettySize=auto;html=1;fontSize=14;fontStyle=1;strokeWidth=2;" parent="1" source="1S2QTwo0giWLdl-as3Fp-6" target="1S2QTwo0giWLdl-as3Fp-48" edge="1">
          <mxGeometry relative="1" as="geometry" />
        </mxCell>
        <mxCell id="1S2QTwo0giWLdl-as3Fp-55" style="edgeStyle=orthogonalEdgeStyle;rounded=0;orthogonalLoop=1;jettySize=auto;html=1;fontSize=14;fontStyle=1;strokeWidth=2;" parent="1" source="1S2QTwo0giWLdl-as3Fp-6" target="1S2QTwo0giWLdl-as3Fp-49" edge="1">
          <mxGeometry relative="1" as="geometry" />
        </mxCell>
        <mxCell id="1S2QTwo0giWLdl-as3Fp-56" style="edgeStyle=orthogonalEdgeStyle;rounded=0;orthogonalLoop=1;jettySize=auto;html=1;entryX=0;entryY=0.5;entryDx=0;entryDy=0;fontSize=14;fontStyle=1;strokeWidth=2;" parent="1" source="1S2QTwo0giWLdl-as3Fp-6" target="1S2QTwo0giWLdl-as3Fp-50" edge="1">
          <mxGeometry relative="1" as="geometry" />
        </mxCell>
        <mxCell id="1S2QTwo0giWLdl-as3Fp-61" style="edgeStyle=orthogonalEdgeStyle;rounded=0;orthogonalLoop=1;jettySize=auto;html=1;fontSize=14;fontStyle=1;strokeWidth=2;" parent="1" source="1S2QTwo0giWLdl-as3Fp-6" target="1S2QTwo0giWLdl-as3Fp-7" edge="1">
          <mxGeometry relative="1" as="geometry" />
        </mxCell>
        <mxCell id="1S2QTwo0giWLdl-as3Fp-6" value="第四章：实验结果及其分析" style="rounded=0;whiteSpace=wrap;html=1;fillColor=#F1F5BD;fontSize=14;fontStyle=1" parent="1" vertex="1">
          <mxGeometry x="77" y="840" width="120" height="60" as="geometry" />
        </mxCell>
        <mxCell id="1S2QTwo0giWLdl-as3Fp-58" style="edgeStyle=orthogonalEdgeStyle;rounded=0;orthogonalLoop=1;jettySize=auto;html=1;fontSize=14;fontStyle=1;strokeWidth=2;" parent="1" source="1S2QTwo0giWLdl-as3Fp-7" target="1S2QTwo0giWLdl-as3Fp-57" edge="1">
          <mxGeometry relative="1" as="geometry" />
        </mxCell>
        <mxCell id="QeqrdNic_y6P3TBAEa3u-2" style="edgeStyle=orthogonalEdgeStyle;rounded=0;orthogonalLoop=1;jettySize=auto;html=1;entryX=0;entryY=0.5;entryDx=0;entryDy=0;strokeWidth=2;" edge="1" parent="1" source="1S2QTwo0giWLdl-as3Fp-7" target="QeqrdNic_y6P3TBAEa3u-1">
          <mxGeometry relative="1" as="geometry" />
        </mxCell>
        <mxCell id="1S2QTwo0giWLdl-as3Fp-7" value="第五章：总结和展望" style="rounded=0;whiteSpace=wrap;html=1;fillColor=#F1F5BD;fontSize=14;fontStyle=1" parent="1" vertex="1">
          <mxGeometry x="77" y="1040" width="120" height="60" as="geometry" />
        </mxCell>
        <mxCell id="1S2QTwo0giWLdl-as3Fp-8" value="研究背景与意义" style="rounded=1;whiteSpace=wrap;html=1;fillColor=#FFFFFF;fontSize=14;fontStyle=1" parent="1" vertex="1">
          <mxGeometry x="307" y="70" width="140" height="40" as="geometry" />
        </mxCell>
        <mxCell id="1S2QTwo0giWLdl-as3Fp-9" value="国内外研究现状" style="rounded=1;whiteSpace=wrap;html=1;fillColor=#FFFFFF;fontSize=14;fontStyle=1" parent="1" vertex="1">
          <mxGeometry x="307" y="131" width="140" height="40" as="geometry" />
        </mxCell>
        <mxCell id="1S2QTwo0giWLdl-as3Fp-10" value="研究目标和研究内容" style="rounded=1;whiteSpace=wrap;html=1;fillColor=#FFFFFF;fontSize=14;fontStyle=1" parent="1" vertex="1">
          <mxGeometry x="307" y="190" width="140" height="40" as="geometry" />
        </mxCell>
        <mxCell id="1S2QTwo0giWLdl-as3Fp-19" value="传统时间动作定位方法" style="rounded=1;whiteSpace=wrap;html=1;fillColor=#FFFFFF;fontSize=14;fontStyle=1" parent="1" vertex="1">
          <mxGeometry x="307" y="260" width="140" height="40" as="geometry" />
        </mxCell>
        <mxCell id="1S2QTwo0giWLdl-as3Fp-65" style="edgeStyle=orthogonalEdgeStyle;rounded=0;orthogonalLoop=1;jettySize=auto;html=1;entryX=0;entryY=0.5;entryDx=0;entryDy=0;fontFamily=Verdana;fontSize=14;strokeWidth=2;" parent="1" source="1S2QTwo0giWLdl-as3Fp-20" target="1S2QTwo0giWLdl-as3Fp-63" edge="1">
          <mxGeometry relative="1" as="geometry" />
        </mxCell>
        <mxCell id="1S2QTwo0giWLdl-as3Fp-66" style="edgeStyle=orthogonalEdgeStyle;rounded=0;orthogonalLoop=1;jettySize=auto;html=1;entryX=0;entryY=0.5;entryDx=0;entryDy=0;fontFamily=Verdana;fontSize=14;strokeWidth=2;" parent="1" source="1S2QTwo0giWLdl-as3Fp-20" target="1S2QTwo0giWLdl-as3Fp-62" edge="1">
          <mxGeometry relative="1" as="geometry" />
        </mxCell>
        <mxCell id="1S2QTwo0giWLdl-as3Fp-67" style="edgeStyle=orthogonalEdgeStyle;rounded=0;orthogonalLoop=1;jettySize=auto;html=1;entryX=0;entryY=0.75;entryDx=0;entryDy=0;fontFamily=Verdana;fontSize=14;strokeWidth=2;" parent="1" source="1S2QTwo0giWLdl-as3Fp-20" target="1S2QTwo0giWLdl-as3Fp-64" edge="1">
          <mxGeometry relative="1" as="geometry" />
        </mxCell>
        <mxCell id="1S2QTwo0giWLdl-as3Fp-20" value="基于深度学习的时间动作定位方法" style="rounded=1;whiteSpace=wrap;html=1;fillColor=#FFFFFF;fontSize=14;fontStyle=1" parent="1" vertex="1">
          <mxGeometry x="307" y="330" width="140" height="40" as="geometry" />
        </mxCell>
        <mxCell id="1S2QTwo0giWLdl-as3Fp-33" style="edgeStyle=orthogonalEdgeStyle;rounded=0;orthogonalLoop=1;jettySize=auto;html=1;entryX=0;entryY=0.5;entryDx=0;entryDy=0;exitX=1;exitY=0.5;exitDx=0;exitDy=0;fontSize=14;fontStyle=1;strokeWidth=2;" parent="1" source="1S2QTwo0giWLdl-as3Fp-5" target="1S2QTwo0giWLdl-as3Fp-25" edge="1">
          <mxGeometry relative="1" as="geometry">
            <mxPoint x="447" y="534.5" as="sourcePoint" />
          </mxGeometry>
        </mxCell>
        <mxCell id="1S2QTwo0giWLdl-as3Fp-34" style="edgeStyle=orthogonalEdgeStyle;rounded=0;orthogonalLoop=1;jettySize=auto;html=1;entryX=0;entryY=0.5;entryDx=0;entryDy=0;exitX=1;exitY=0.5;exitDx=0;exitDy=0;fontSize=14;fontStyle=1;strokeWidth=2;" parent="1" source="1S2QTwo0giWLdl-as3Fp-5" target="1S2QTwo0giWLdl-as3Fp-26" edge="1">
          <mxGeometry relative="1" as="geometry">
            <mxPoint x="447" y="534.5" as="sourcePoint" />
          </mxGeometry>
        </mxCell>
        <mxCell id="1S2QTwo0giWLdl-as3Fp-35" style="edgeStyle=orthogonalEdgeStyle;rounded=0;orthogonalLoop=1;jettySize=auto;html=1;entryX=0;entryY=0.5;entryDx=0;entryDy=0;exitX=1;exitY=0.5;exitDx=0;exitDy=0;fontSize=14;fontStyle=1;strokeWidth=2;" parent="1" source="1S2QTwo0giWLdl-as3Fp-5" target="1S2QTwo0giWLdl-as3Fp-27" edge="1">
          <mxGeometry relative="1" as="geometry">
            <mxPoint x="447" y="534.5" as="sourcePoint" />
          </mxGeometry>
        </mxCell>
        <mxCell id="1S2QTwo0giWLdl-as3Fp-36" style="edgeStyle=orthogonalEdgeStyle;rounded=0;orthogonalLoop=1;jettySize=auto;html=1;exitX=1;exitY=0.5;exitDx=0;exitDy=0;fontSize=14;fontStyle=1;strokeWidth=2;" parent="1" source="1S2QTwo0giWLdl-as3Fp-5" target="1S2QTwo0giWLdl-as3Fp-29" edge="1">
          <mxGeometry relative="1" as="geometry">
            <mxPoint x="447" y="534.5" as="sourcePoint" />
          </mxGeometry>
        </mxCell>
        <mxCell id="1S2QTwo0giWLdl-as3Fp-37" style="edgeStyle=orthogonalEdgeStyle;rounded=0;orthogonalLoop=1;jettySize=auto;html=1;entryX=0;entryY=0.5;entryDx=0;entryDy=0;exitX=1;exitY=0.5;exitDx=0;exitDy=0;fontSize=14;fontStyle=1;strokeWidth=2;" parent="1" source="1S2QTwo0giWLdl-as3Fp-5" target="1S2QTwo0giWLdl-as3Fp-30" edge="1">
          <mxGeometry relative="1" as="geometry">
            <mxPoint x="447" y="534.5" as="sourcePoint" />
          </mxGeometry>
        </mxCell>
        <mxCell id="1S2QTwo0giWLdl-as3Fp-38" style="edgeStyle=orthogonalEdgeStyle;rounded=0;orthogonalLoop=1;jettySize=auto;html=1;entryX=0;entryY=0.5;entryDx=0;entryDy=0;exitX=1;exitY=0.5;exitDx=0;exitDy=0;fontSize=14;fontStyle=1;strokeWidth=2;" parent="1" source="1S2QTwo0giWLdl-as3Fp-5" target="1S2QTwo0giWLdl-as3Fp-31" edge="1">
          <mxGeometry relative="1" as="geometry">
            <mxPoint x="447" y="534.5" as="sourcePoint" />
          </mxGeometry>
        </mxCell>
        <mxCell id="1S2QTwo0giWLdl-as3Fp-25" value="动作特征提取" style="rounded=1;whiteSpace=wrap;html=1;fillColor=#FFFFFF;fontSize=14;fontStyle=1" parent="1" vertex="1">
          <mxGeometry x="307" y="390" width="140" height="40" as="geometry" />
        </mxCell>
        <mxCell id="1S2QTwo0giWLdl-as3Fp-26" value="无监督聚类" style="rounded=1;whiteSpace=wrap;html=1;fillColor=#FFFFFF;fontSize=14;fontStyle=1" parent="1" vertex="1">
          <mxGeometry x="307" y="450" width="140" height="40" as="geometry" />
        </mxCell>
        <mxCell id="1S2QTwo0giWLdl-as3Fp-71" style="edgeStyle=orthogonalEdgeStyle;rounded=0;orthogonalLoop=1;jettySize=auto;html=1;entryX=0;entryY=0.5;entryDx=0;entryDy=0;fontFamily=Verdana;fontSize=14;strokeWidth=2;" parent="1" source="1S2QTwo0giWLdl-as3Fp-27" target="1S2QTwo0giWLdl-as3Fp-69" edge="1">
          <mxGeometry relative="1" as="geometry" />
        </mxCell>
        <mxCell id="1S2QTwo0giWLdl-as3Fp-72" style="edgeStyle=orthogonalEdgeStyle;rounded=0;orthogonalLoop=1;jettySize=auto;html=1;fontFamily=Verdana;fontSize=14;strokeWidth=2;" parent="1" source="1S2QTwo0giWLdl-as3Fp-27" target="1S2QTwo0giWLdl-as3Fp-70" edge="1">
          <mxGeometry relative="1" as="geometry" />
        </mxCell>
        <mxCell id="1S2QTwo0giWLdl-as3Fp-27" value="背景抑制网络" style="rounded=1;whiteSpace=wrap;html=1;fillColor=#FFFFFF;fontSize=14;fontStyle=1" parent="1" vertex="1">
          <mxGeometry x="307" y="510" width="140" height="40" as="geometry" />
        </mxCell>
        <mxCell id="1S2QTwo0giWLdl-as3Fp-29" value="背景分离损失" style="rounded=1;whiteSpace=wrap;html=1;fillColor=#FFFFFF;fontSize=14;fontStyle=1" parent="1" vertex="1">
          <mxGeometry x="307" y="570" width="140" height="40" as="geometry" />
        </mxCell>
        <mxCell id="1S2QTwo0giWLdl-as3Fp-30" value="损失函数" style="rounded=1;whiteSpace=wrap;html=1;fillColor=#FFFFFF;fontSize=14;fontStyle=1" parent="1" vertex="1">
          <mxGeometry x="307" y="630" width="140" height="40" as="geometry" />
        </mxCell>
        <mxCell id="1S2QTwo0giWLdl-as3Fp-31" value="分类和定位" style="rounded=1;whiteSpace=wrap;html=1;fillColor=#FFFFFF;fontSize=14;fontStyle=1" parent="1" vertex="1">
          <mxGeometry x="307" y="690" width="140" height="40" as="geometry" />
        </mxCell>
        <mxCell id="1S2QTwo0giWLdl-as3Fp-39" style="edgeStyle=orthogonalEdgeStyle;rounded=0;orthogonalLoop=1;jettySize=auto;html=1;exitX=0.5;exitY=1;exitDx=0;exitDy=0;fontSize=14;fontStyle=1" parent="1" source="1S2QTwo0giWLdl-as3Fp-6" target="1S2QTwo0giWLdl-as3Fp-6" edge="1">
          <mxGeometry relative="1" as="geometry" />
        </mxCell>
        <mxCell id="1S2QTwo0giWLdl-as3Fp-42" value="实验数据集和评估标准" style="rounded=1;whiteSpace=wrap;html=1;fillColor=#FFFFFF;fontSize=14;fontStyle=1" parent="1" vertex="1">
          <mxGeometry x="307" y="750" width="140" height="40" as="geometry" />
        </mxCell>
        <mxCell id="1S2QTwo0giWLdl-as3Fp-48" value="实验细节" style="rounded=1;whiteSpace=wrap;html=1;fillColor=#FFFFFF;fontSize=14;fontStyle=1" parent="1" vertex="1">
          <mxGeometry x="307" y="810" width="140" height="40" as="geometry" />
        </mxCell>
        <mxCell id="1S2QTwo0giWLdl-as3Fp-76" style="edgeStyle=orthogonalEdgeStyle;rounded=0;orthogonalLoop=1;jettySize=auto;html=1;entryX=0;entryY=0.5;entryDx=0;entryDy=0;fontFamily=Verdana;fontSize=14;strokeWidth=2;" parent="1" source="1S2QTwo0giWLdl-as3Fp-49" target="1S2QTwo0giWLdl-as3Fp-73" edge="1">
          <mxGeometry relative="1" as="geometry" />
        </mxCell>
        <mxCell id="1S2QTwo0giWLdl-as3Fp-77" style="edgeStyle=orthogonalEdgeStyle;rounded=0;orthogonalLoop=1;jettySize=auto;html=1;fontFamily=Verdana;fontSize=14;strokeWidth=2;" parent="1" source="1S2QTwo0giWLdl-as3Fp-49" target="1S2QTwo0giWLdl-as3Fp-74" edge="1">
          <mxGeometry relative="1" as="geometry" />
        </mxCell>
        <mxCell id="1S2QTwo0giWLdl-as3Fp-78" style="edgeStyle=orthogonalEdgeStyle;rounded=0;orthogonalLoop=1;jettySize=auto;html=1;entryX=0;entryY=0.5;entryDx=0;entryDy=0;fontFamily=Verdana;fontSize=14;strokeWidth=2;" parent="1" source="1S2QTwo0giWLdl-as3Fp-49" target="1S2QTwo0giWLdl-as3Fp-75" edge="1">
          <mxGeometry relative="1" as="geometry" />
        </mxCell>
        <mxCell id="1S2QTwo0giWLdl-as3Fp-49" value="实验结果" style="rounded=1;whiteSpace=wrap;html=1;fillColor=#FFFFFF;fontSize=14;fontStyle=1" parent="1" vertex="1">
          <mxGeometry x="307" y="880" width="140" height="40" as="geometry" />
        </mxCell>
        <mxCell id="1S2QTwo0giWLdl-as3Fp-50" value="实验分析与探究" style="rounded=1;whiteSpace=wrap;html=1;fillColor=#FFFFFF;fontSize=14;fontStyle=1" parent="1" vertex="1">
          <mxGeometry x="307" y="940" width="140" height="40" as="geometry" />
        </mxCell>
        <mxCell id="1S2QTwo0giWLdl-as3Fp-57" value="总结" style="rounded=1;whiteSpace=wrap;html=1;fillColor=#FFFFFF;fontSize=14;fontStyle=1" parent="1" vertex="1">
          <mxGeometry x="307" y="1020" width="140" height="40" as="geometry" />
        </mxCell>
        <mxCell id="1S2QTwo0giWLdl-as3Fp-62" value="全监督" style="rounded=1;whiteSpace=wrap;html=1;fillColor=#FFFFFF;fontSize=14;fontStyle=1" parent="1" vertex="1">
          <mxGeometry x="520" y="280" width="140" height="40" as="geometry" />
        </mxCell>
        <mxCell id="1S2QTwo0giWLdl-as3Fp-63" value="弱监督" style="rounded=1;whiteSpace=wrap;html=1;fillColor=#FFFFFF;fontSize=14;fontStyle=1" parent="1" vertex="1">
          <mxGeometry x="520" y="330" width="140" height="40" as="geometry" />
        </mxCell>
        <mxCell id="1S2QTwo0giWLdl-as3Fp-64" value="无监督" style="rounded=1;whiteSpace=wrap;html=1;fillColor=#FFFFFF;fontSize=14;fontStyle=1" parent="1" vertex="1">
          <mxGeometry x="520" y="380" width="140" height="40" as="geometry" />
        </mxCell>
        <mxCell id="1S2QTwo0giWLdl-as3Fp-69" value="基础分支" style="rounded=1;whiteSpace=wrap;html=1;fillColor=#FFFFFF;fontSize=14;fontStyle=1" parent="1" vertex="1">
          <mxGeometry x="520" y="480" width="140" height="40" as="geometry" />
        </mxCell>
        <mxCell id="1S2QTwo0giWLdl-as3Fp-70" value="抑制分支" style="rounded=1;whiteSpace=wrap;html=1;fillColor=#FFFFFF;fontSize=14;fontStyle=1" parent="1" vertex="1">
          <mxGeometry x="520" y="530" width="140" height="40" as="geometry" />
        </mxCell>
        <mxCell id="1S2QTwo0giWLdl-as3Fp-73" value="聚类结果" style="rounded=1;whiteSpace=wrap;html=1;fillColor=#FFFFFF;fontSize=14;fontStyle=1" parent="1" vertex="1">
          <mxGeometry x="500" y="830" width="140" height="40" as="geometry" />
        </mxCell>
        <mxCell id="1S2QTwo0giWLdl-as3Fp-74" value="分类结果" style="rounded=1;whiteSpace=wrap;html=1;fillColor=#FFFFFF;fontSize=14;fontStyle=1" parent="1" vertex="1">
          <mxGeometry x="500" y="880" width="140" height="40" as="geometry" />
        </mxCell>
        <mxCell id="1S2QTwo0giWLdl-as3Fp-75" value="定位结果" style="rounded=1;whiteSpace=wrap;html=1;fillColor=#FFFFFF;fontSize=14;fontStyle=1" parent="1" vertex="1">
          <mxGeometry x="500" y="930" width="140" height="40" as="geometry" />
        </mxCell>
        <mxCell id="QeqrdNic_y6P3TBAEa3u-1" value="展望" style="rounded=1;whiteSpace=wrap;html=1;fillColor=#FFFFFF;fontSize=14;fontStyle=1" vertex="1" parent="1">
          <mxGeometry x="307" y="1080" width="140" height="40" as="geometry" />
        </mxCell>
      </root>
    </mxGraphModel>
  </diagram>
</mxfile>
